<svg xmlns="http://www.w3.org/2000/svg" viewBox="0 0 28.31 31.23"><defs><style>.cls-1{fill:none;stroke-width:0.25px;}.cls-1,.cls-2{stroke:#000;stroke-miterlimit:10;}.cls-2{stroke-width:0.01px;}</style></defs><g id="Layer_2" data-name="Layer 2"><path class="cls-1" d="M22,12a2.64,2.64,0,0,0-2.56-2A2.54,2.54,0,0,0,18,10.5a2.62,2.62,0,0,0-1.13,2.16,2.55,2.55,0,0,0,.28,1.16c-.67.2-1.37.4-2.08.59C7.31,16.48.64,16.66.15,14.81s5.37-5,13.1-7.1,14.4-2.25,14.9-.4C28.48,8.54,26,10.36,22,12Z"/></g><g id="Layer_1" data-name="Layer 1"><path d="M19.46,15.28A2.62,2.62,0,0,1,18,10.5L16.9,9.33,25.55,0H20.17L14.24,6.45,8.32,0H2.93l8.66,9.33L2.93,18.77h5.2l6.11-6.58,6.12,6.58h5.19l-4.06-4.44A2.63,2.63,0,0,1,19.46,15.28Z"/><path class="cls-1" d="M22.09,12.66a2.66,2.66,0,0,1-.6,1.67,2.63,2.63,0,0,1-2,.95,2.59,2.59,0,0,1-2.34-1.46,2.55,2.55,0,0,1-.28-1.16A2.62,2.62,0,0,1,18,10.5,2.54,2.54,0,0,1,19.46,10,2.64,2.64,0,0,1,22,12,3.18,3.18,0,0,1,22.09,12.66Z"/><path d="M3.68,29.19h.4a2.25,2.25,0,0,1,.46,0,.57.57,0,0,1,.28.18.47.47,0,0,1,.1.32.48.48,0,0,1-.1.33.46.46,0,0,1-.29.17,2,2,0,0,1-.51,0H3.88v.92h-.2Zm.2.2v.67h.34a1.08,1.08,0,0,0,.3,0,.44.44,0,0,0,.15-.12.41.41,0,0,0,0-.19.41.41,0,0,0,0-.18.44.44,0,0,0-.15-.12,1,1,0,0,0-.29,0Z"/><path d="M5.32,29.19h.2V30h1v-.84h.2v2h-.2v-1h-1v1h-.2Z"/><path d="M7.05,29.19h.23l.51.82.5-.82h.23l-.63,1v.95h-.2v-.95Z"/><path d="M8.64,30.81l.17-.1c.12.22.26.33.41.33A.41.41,0,0,0,9.41,31a.3.3,0,0,0,.13-.12.37.37,0,0,0,.05-.17.32.32,0,0,0-.07-.2,1.54,1.54,0,0,0-.34-.31,1.93,1.93,0,0,1-.31-.28.47.47,0,0,1-.1-.3.5.5,0,0,1,.06-.24A.44.44,0,0,1,9,29.21a.45.45,0,0,1,.25-.07.59.59,0,0,1,.26.07,1.06,1.06,0,0,1,.26.26l-.16.12a.82.82,0,0,0-.19-.19.37.37,0,0,0-.18,0A.26.26,0,0,0,9,29.6a.28.28,0,0,0,0,.13.5.5,0,0,0,.1.13,2.43,2.43,0,0,0,.25.2,1.5,1.5,0,0,1,.36.34.58.58,0,0,1,.09.3.5.5,0,0,1-.16.37.54.54,0,0,1-.4.16.56.56,0,0,1-.33-.1A.8.8,0,0,1,8.64,30.81Z"/><path d="M10.19,29.19h.2v2h-.2Z"/><path d="M12.7,29.56l-.16.12a.93.93,0,0,0-.31-.25.87.87,0,0,0-.4-.09,1,1,0,0,0-.44.11.84.84,0,0,0-.31.31.79.79,0,0,0-.11.43.82.82,0,0,0,.24.61.88.88,0,0,0,.63.24.91.91,0,0,0,.7-.32l.16.11a1,1,0,0,1-.37.3,1.18,1.18,0,0,1-.5.1,1,1,0,0,1-1.07-1.05,1,1,0,0,1,.3-.74,1.06,1.06,0,0,1,.77-.3,1.18,1.18,0,0,1,.5.11A1.12,1.12,0,0,1,12.7,29.56Z"/><path d="M12.89,30.81l.17-.1c.12.22.26.33.41.33a.41.41,0,0,0,.19-.05.3.3,0,0,0,.13-.12.37.37,0,0,0,.05-.17.32.32,0,0,0-.07-.2,1.54,1.54,0,0,0-.34-.31,1.93,1.93,0,0,1-.31-.28.47.47,0,0,1-.1-.3.5.5,0,0,1,.06-.24.44.44,0,0,1,.17-.16.45.45,0,0,1,.25-.07.59.59,0,0,1,.26.07,1.06,1.06,0,0,1,.26.26l-.16.12a.82.82,0,0,0-.19-.19.37.37,0,0,0-.18,0,.26.26,0,0,0-.27.25.28.28,0,0,0,0,.13.5.5,0,0,0,.1.13,2.43,2.43,0,0,0,.25.2,1.5,1.5,0,0,1,.36.34.58.58,0,0,1,.09.3.5.5,0,0,1-.16.37.54.54,0,0,1-.4.16.56.56,0,0,1-.33-.1A.8.8,0,0,1,12.89,30.81Z"/><path d="M15.24,29.19h1.14v.2h-.94V30h.93v.2h-.93V31h.93v.19H15.24Z"/><path d="M16.72,31.18v-2h.05l1.32,1.53V29.19h.19v2h0l-1.31-1.5v1.5Z"/><path d="M20.68,29.53l-.15.14a1.12,1.12,0,0,0-.37-.24.92.92,0,0,0-.38-.09.89.89,0,0,0-.45.12.74.74,0,0,0-.32.31.78.78,0,0,0-.12.41.85.85,0,0,0,.12.43.92.92,0,0,0,.33.32,1,1,0,0,0,.47.11.85.85,0,0,0,.52-.17.73.73,0,0,0,.25-.45h-.64v-.19h.86a1,1,0,0,1-.27.73,1,1,0,0,1-.73.27,1.08,1.08,0,0,1-.87-.37,1,1,0,0,1-.25-.67,1.08,1.08,0,0,1,.53-.91,1.16,1.16,0,0,1,.56-.14,1.12,1.12,0,0,1,.48.1A1.26,1.26,0,0,1,20.68,29.53Z"/><path d="M21.15,29.19h.2v2h-.2Z"/><path d="M21.8,31.18v-2h.05l1.32,1.53V29.19h.2v2h-.05L22,29.68v1.5Z"/><path d="M23.85,29.19H25v.2h-.94V30H25v.2h-.93V31H25v.19H23.85Z"/><path class="cls-2" d="M6.24,22.84v3.32a1.85,1.85,0,0,1-2.11,2.07,4.13,4.13,0,0,1-1.07-.14,2.36,2.36,0,0,1-.84-.42L2.63,27a1.9,1.9,0,0,0,.65.34,2.44,2.44,0,0,0,.8.13A1.32,1.32,0,0,0,5,27.16a1.22,1.22,0,0,0,.3-.9v-.2a1.45,1.45,0,0,1-.57.39,2.17,2.17,0,0,1-.74.13,2.12,2.12,0,0,1-1-.24,1.76,1.76,0,0,1-.71-.67,2,2,0,0,1,0-2A1.68,1.68,0,0,1,3,23a2.12,2.12,0,0,1,1-.24,2.21,2.21,0,0,1,.78.14,1.45,1.45,0,0,1,.58.43v-.52ZM5,25.49a1.07,1.07,0,0,0,.33-.81,1,1,0,0,0-.33-.8,1.21,1.21,0,0,0-.86-.31,1.2,1.2,0,0,0-.86.31,1,1,0,0,0-.34.8,1.08,1.08,0,0,0,.34.81,1.2,1.2,0,0,0,.86.31A1.21,1.21,0,0,0,5,25.49Z"/><path class="cls-2" d="M9.71,22.79v.87l-.21,0a1.14,1.14,0,0,0-.84.31,1.25,1.25,0,0,0-.3.9v1.9H7.45V22.84h.87v.57A1.53,1.53,0,0,1,9.71,22.79Z"/><path class="cls-2" d="M13.29,23.21a1.57,1.57,0,0,1,.46,1.25v2.29h-.87v-.47a1,1,0,0,1-.48.39,1.89,1.89,0,0,1-.75.14,1.86,1.86,0,0,1-.77-.15,1.18,1.18,0,0,1-.51-.42,1.12,1.12,0,0,1,.21-1.46,2,2,0,0,1,1.24-.32h1v-.05a.79.79,0,0,0-.24-.63,1.06,1.06,0,0,0-.73-.22,2.05,2.05,0,0,0-.65.1,1.53,1.53,0,0,0-.54.28l-.36-.66a2,2,0,0,1,.74-.36,3.05,3.05,0,0,1,.92-.13A1.9,1.9,0,0,1,13.29,23.21ZM12.45,26a.84.84,0,0,0,.38-.45v-.46h-.94c-.53,0-.8.18-.8.53a.47.47,0,0,0,.2.39.9.9,0,0,0,.55.15A1.11,1.11,0,0,0,12.45,26Z"/><path class="cls-2" d="M18.52,22.84l-1.68,3.91h-.95l-1.68-3.91h1l1.21,2.9,1.26-2.9Z"/><path class="cls-2" d="M19.14,22a.53.53,0,0,1,0-.78.56.56,0,0,1,.41-.16.6.6,0,0,1,.42.15.5.5,0,0,1,.17.38A.57.57,0,0,1,20,22a.61.61,0,0,1-.43.16A.56.56,0,0,1,19.14,22Zm-.05.81H20v3.91h-.92Z"/><path class="cls-2" d="M25.43,26.75l-1.71-2.39L22,26.75H20.69L23,23.54l-2.21-3.09h1.32l1.61,2.25,1.6-2.25h1.26l-2.2,3.05,2.37,3.25Z"/></g></svg>