<svg xmlns="http://www.w3.org/2000/svg" viewBox="0 0 28.31 32.03"><defs><style>.cls-1{fill:none;stroke-width:0.25px;}.cls-1,.cls-3{stroke:#000;stroke-miterlimit:10;}.cls-2{font-size:2.76px;font-family:CenturyGothic, Century Gothic;}.cls-3{font-size:7.34px;stroke-width:0.01px;font-family:Montserrat-SemiBold, Montserrat SemiBold;font-weight:600;}.cls-4{letter-spacing:-0.01em;}.cls-5{letter-spacing:-0.01em;}.cls-6{font-size:9px;letter-spacing:0em;}</style></defs><g id="Layer_2" data-name="Layer 2"><path class="cls-1" d="M22,12a2.64,2.64,0,0,0-2.56-2A2.54,2.54,0,0,0,18,10.5a2.62,2.62,0,0,0-1.13,2.16,2.55,2.55,0,0,0,.28,1.16c-.67.2-1.37.4-2.08.59C7.31,16.48.64,16.66.15,14.81s5.37-5,13.1-7.1,14.4-2.25,14.9-.4C28.48,8.54,26,10.36,22,12Z"/></g><g id="Layer_1" data-name="Layer 1"><path d="M19.46,15.28A2.62,2.62,0,0,1,18,10.5L16.9,9.33,25.55,0H20.17L14.24,6.45,8.32,0H2.93l8.66,9.33L2.93,18.77h5.2l6.11-6.58,6.12,6.58h5.19l-4.06-4.44A2.63,2.63,0,0,1,19.46,15.28Z"/><path class="cls-1" d="M22.09,12.66a2.66,2.66,0,0,1-.6,1.67,2.63,2.63,0,0,1-2,.95,2.59,2.59,0,0,1-2.34-1.46,2.55,2.55,0,0,1-.28-1.16A2.62,2.62,0,0,1,18,10.5,2.54,2.54,0,0,1,19.46,10,2.64,2.64,0,0,1,22,12,3.18,3.18,0,0,1,22.09,12.66Z"/><text class="cls-2" transform="translate(3.44 31.18)">PHYSICS ENGINE</text><text class="cls-3" transform="translate(1.75 26.75)">g<tspan class="cls-4" x="5.09" y="0">r</tspan><tspan class="cls-5" x="8.12" y="0">a</tspan><tspan x="12.5" y="0">vi</tspan><tspan class="cls-6" x="18.86" y="0">X</tspan></text></g></svg>